<svg viewBox="0 0 1903.75 400" xmlns="http://www.w3.org/2000/svg"><g><g><g><g><g><line x1="50" y1="342.6023058204749" x2="45" y2="342.6023058204749" style="visibility: inherit;" fill="rgb(0, 0, 0)" stroke="rgb(204, 204, 204)" stroke-width="1px"></line><line x1="50" y1="302.96801487504166" x2="45" y2="302.96801487504166" style="visibility: inherit;" fill="rgb(0, 0, 0)" stroke="rgb(204, 204, 204)" stroke-width="1px"></line><line x1="50" y1="263.3337239296081" x2="45" y2="263.3337239296081" style="visibility: inherit;" fill="rgb(0, 0, 0)" stroke="rgb(204, 204, 204)" stroke-width="1px"></line><line x1="50" y1="223.69943298417488" x2="45" y2="223.69943298417488" style="visibility: inherit;" fill="rgb(0, 0, 0)" stroke="rgb(204, 204, 204)" stroke-width="1px"></line><line x1="50" y1="184.06514203874167" x2="45" y2="184.06514203874167" style="visibility: inherit;" fill="rgb(0, 0, 0)" stroke="rgb(204, 204, 204)" stroke-width="1px"></line><line x1="50" y1="144.43085109330806" x2="45" y2="144.43085109330806" style="visibility: inherit;" fill="rgb(0, 0, 0)" stroke="rgb(204, 204, 204)" stroke-width="1px"></line><line x1="50" y1="104.79656014787486" x2="45" y2="104.79656014787486" style="visibility: inherit;" fill="rgb(0, 0, 0)" stroke="rgb(204, 204, 204)" stroke-width="1px"></line><line x1="50" y1="65.16226920244122" x2="45" y2="65.16226920244122" style="visibility: inherit;" fill="rgb(0, 0, 0)" stroke="rgb(204, 204, 204)" stroke-width="1px"></line><line x1="50" y1="25.527978257008044" x2="45" y2="25.527978257008044" style="visibility: inherit;" fill="rgb(0, 0, 0)" stroke="rgb(204, 204, 204)" stroke-width="1px"></line></g><g transform="translate(40, 0)"><text x="0" y="342.6023058204749" dx="0em" dy="0.3em" style="text-anchor: end; visibility: inherit; font-family: &quot;Helvetica Neue&quot;, sans-serif; font-size: 12px; font-weight: 200;" fill="rgb(33, 33, 33)" stroke="none" stroke-width="1px">2.35</text><text x="0" y="302.96801487504166" dx="0em" dy="0.3em" style="text-anchor: end; visibility: inherit; font-family: &quot;Helvetica Neue&quot;, sans-serif; font-size: 12px; font-weight: 200;" fill="rgb(33, 33, 33)" stroke="none" stroke-width="1px">2.4</text><text x="0" y="263.3337239296081" dx="0em" dy="0.3em" style="text-anchor: end; visibility: inherit; font-family: &quot;Helvetica Neue&quot;, sans-serif; font-size: 12px; font-weight: 200;" fill="rgb(33, 33, 33)" stroke="none" stroke-width="1px">2.45</text><text x="0" y="223.69943298417488" dx="0em" dy="0.3em" style="text-anchor: end; visibility: inherit; font-family: &quot;Helvetica Neue&quot;, sans-serif; font-size: 12px; font-weight: 200;" fill="rgb(33, 33, 33)" stroke="none" stroke-width="1px">2.5</text><text x="0" y="184.06514203874167" dx="0em" dy="0.3em" style="text-anchor: end; visibility: inherit; font-family: &quot;Helvetica Neue&quot;, sans-serif; font-size: 12px; font-weight: 200;" fill="rgb(33, 33, 33)" stroke="none" stroke-width="1px">2.55</text><text x="0" y="144.43085109330806" dx="0em" dy="0.3em" style="text-anchor: end; visibility: inherit; font-family: &quot;Helvetica Neue&quot;, sans-serif; font-size: 12px; font-weight: 200;" fill="rgb(33, 33, 33)" stroke="none" stroke-width="1px">2.6</text><text x="0" y="104.79656014787486" dx="0em" dy="0.3em" style="text-anchor: end; visibility: inherit; font-family: &quot;Helvetica Neue&quot;, sans-serif; font-size: 12px; font-weight: 200;" fill="rgb(33, 33, 33)" stroke="none" stroke-width="1px">2.65</text><text x="0" y="65.16226920244122" dx="0em" dy="0.3em" style="text-anchor: end; visibility: inherit; font-family: &quot;Helvetica Neue&quot;, sans-serif; font-size: 12px; font-weight: 200;" fill="rgb(33, 33, 33)" stroke="none" stroke-width="1px">2.7</text><text x="0" y="25.527978257008044" dx="0em" dy="0.3em" style="text-anchor: end; visibility: inherit; font-family: &quot;Helvetica Neue&quot;, sans-serif; font-size: 12px; font-weight: 200;" fill="rgb(33, 33, 33)" stroke="none" stroke-width="1px">2.75</text></g><line x1="50" y1="0" x2="50" y2="377" fill="rgb(0, 0, 0)" stroke="rgb(204, 204, 204)" stroke-width="1px"></line></g></g><g transform="translate(50, 0)" clip-path="url(#clip_0)"><clipPath id="clip_0"><rect width="1872" height="376"></rect></clipPath><g><g><g><line x1="123.94297403023997" y1="0" x2="123.94297403023997" y2="377" fill="rgb(0, 0, 0)" stroke="rgb(66, 66, 66)" stroke-width="1px" opacity="0.25"></line><line x1="287.1837965032627" y1="0" x2="287.1837965032627" y2="377" fill="rgb(0, 0, 0)" stroke="rgb(66, 66, 66)" stroke-width="1px" opacity="0.25"></line><line x1="450.4246189762855" y1="0" x2="450.4246189762855" y2="377" fill="rgb(0, 0, 0)" stroke="rgb(66, 66, 66)" stroke-width="1px" opacity="0.25"></line><line x1="613.6654414493082" y1="0" x2="613.6654414493082" y2="377" fill="rgb(0, 0, 0)" stroke="rgb(66, 66, 66)" stroke-width="1px" opacity="0.25"></line><line x1="776.9062639223309" y1="0" x2="776.9062639223309" y2="377" fill="rgb(0, 0, 0)" stroke="rgb(66, 66, 66)" stroke-width="1px" opacity="0.25"></line><line x1="940.1470863953537" y1="0" x2="940.1470863953537" y2="377" fill="rgb(0, 0, 0)" stroke="rgb(66, 66, 66)" stroke-width="1px" opacity="0.25"></line><line x1="1103.3879088683764" y1="0" x2="1103.3879088683764" y2="377" fill="rgb(0, 0, 0)" stroke="rgb(66, 66, 66)" stroke-width="1px" opacity="0.25"></line><line x1="1266.628731341399" y1="0" x2="1266.628731341399" y2="377" fill="rgb(0, 0, 0)" stroke="rgb(66, 66, 66)" stroke-width="1px" opacity="0.25"></line><line x1="1429.8695538144218" y1="0" x2="1429.8695538144218" y2="377" fill="rgb(0, 0, 0)" stroke="rgb(66, 66, 66)" stroke-width="1px" opacity="0.25"></line><line x1="1593.1103762874448" y1="0" x2="1593.1103762874448" y2="377" fill="rgb(0, 0, 0)" stroke="rgb(66, 66, 66)" stroke-width="1px" opacity="0.25"></line><line x1="1756.3511987604675" y1="0" x2="1756.3511987604675" y2="377" fill="rgb(0, 0, 0)" stroke="rgb(66, 66, 66)" stroke-width="1px" opacity="0.25"></line></g><g><line x1="0" y1="342.6023058204749" x2="1872.5" y2="342.6023058204749" fill="rgb(0, 0, 0)" stroke="rgb(66, 66, 66)" stroke-width="1px" opacity="0.25"></line><line x1="0" y1="302.96801487504166" x2="1872.5" y2="302.96801487504166" fill="rgb(0, 0, 0)" stroke="rgb(66, 66, 66)" stroke-width="1px" opacity="0.25"></line><line x1="0" y1="263.3337239296081" x2="1872.5" y2="263.3337239296081" fill="rgb(0, 0, 0)" stroke="rgb(66, 66, 66)" stroke-width="1px" opacity="0.25"></line><line x1="0" y1="223.69943298417488" x2="1872.5" y2="223.69943298417488" fill="rgb(0, 0, 0)" stroke="rgb(66, 66, 66)" stroke-width="1px" opacity="0.25"></line><line x1="0" y1="184.06514203874167" x2="1872.5" y2="184.06514203874167" fill="rgb(0, 0, 0)" stroke="rgb(66, 66, 66)" stroke-width="1px" opacity="0.25"></line><line x1="0" y1="144.43085109330806" x2="1872.5" y2="144.43085109330806" fill="rgb(0, 0, 0)" stroke="rgb(66, 66, 66)" stroke-width="1px" opacity="0.25"></line><line x1="0" y1="104.79656014787486" x2="1872.5" y2="104.79656014787486" fill="rgb(0, 0, 0)" stroke="rgb(66, 66, 66)" stroke-width="1px" opacity="0.25"></line><line x1="0" y1="65.16226920244122" x2="1872.5" y2="65.16226920244122" fill="rgb(0, 0, 0)" stroke="rgb(66, 66, 66)" stroke-width="1px" opacity="0.25"></line><line x1="0" y1="25.527978257008044" x2="1872.5" y2="25.527978257008044" fill="rgb(0, 0, 0)" stroke="rgb(66, 66, 66)" stroke-width="1px" opacity="0.25"></line></g></g></g><g><g><line x1="0" y1="2205.413980255843" x2="1872.5" y2="2205.413980255843" fill="rgb(0, 0, 0)" stroke="rgb(153, 153, 153)" stroke-width="1.5px"></line></g></g><g><g><line x1="123.94297403023997" y1="0" x2="123.94297403023997" y2="377" fill="rgb(0, 0, 0)" stroke="rgb(153, 153, 153)" stroke-width="1.5px"></line></g></g><g><g><g><g><g><path stroke="rgb(255, 112, 67)" stroke-width="2px" d="M132.10501515389112,307.6515149002823L140.26705627754225,8.927892533814997L148.4290974011934,99.52275164299357L156.59113852484452,163.7603148858926L164.75317964849566,219.87498062419726L172.9152207721468,172.79383091430537L181.07726189579793,222.3581541772069L189.23930301944907,249.89415863753328L197.4013441431002,220.59106184274165L205.56338526675134,243.15463287492332L213.7254263904025,219.7968597644162L221.88746751405364,235.66540857340493L230.04950863770478,252.83146032123105L238.21154976135588,269.0205394907069L246.37359088500702,281.436883211959L254.53563200865815,285.9804502963034L262.6976731323093,289.0489114703194L270.85971425596045,297.22671499486324L279.0217553796116,281.8847532612875L287.1837965032627,291.86770178872507L295.34583762691386,299.6978604389573L303.507878750565,284.9654009454841L311.66991987421613,291.1766822474053L319.83196099786727,301.25019909372975L327.99400212151846,309.9323926941905L336.1560432451696,300.30623108593454L344.31808436882073,290.44496519947916L352.48012549247187,280.38772046547984L360.642166616123,272.64501350153796L368.80420773977414,279.27327011436273L376.9662488634253,285.92289798665166L385.1282899870764,287.3612502894292L393.29033111072755,293.53525448499465L401.4523722343787,300.5376195583474L409.6144133580298,306.15236715248045L417.77645448168096,298.95935316584325L425.9384956053321,291.0887060841253L434.10053672898323,296.8570232766434L442.26257785263437,302.24810633842276L450.4246189762855,304.0199432030186L458.58666009993664,307.80977221043645L466.7487012235878,308.7192523483958L474.91074234723885,305.4846197754333L483.07278347089004,307.378705521338L491.2348245945411,308.3592973171677L499.3968657181923,302.86815198753186L507.5589068418434,305.8746723104578L515.7209479654946,308.8805687234792L523.8829890891457,304.5317908105366L532.0450302127969,308.2853657668836L540.2070713364479,303.7863606869339L548.3691124600991,304.764659870374L556.5311535837503,305.55624307024715L564.6931947074014,305.7205584797506L572.8552358310526,306.8065686539394L581.0172769547037,308.1080992245685L589.1793180783549,304.79614442493164L597.341359202006,308.27554597749173L605.5034003256571,310.80057075981256L613.6654414493082,311.70656837159913L621.8274825729594,309.3663150156126L629.9895236966105,312.1306618834262L638.1515648202617,314.78753479098697L646.3136059439128,315.961705381994L654.475647067564,312.5371802124717L662.637688191215,310.21828185351023L670.7997293148662,308.2689631371984L678.9617704385173,305.54331381546945L687.1238115621685,308.42503467980595L695.2858526858196,305.53236629767474L703.4478938094708,306.2265853370954L711.6099349331218,304.51088808292616L719.771976056773,301.9442119456653L727.9340171804241,302.5116557268451L736.0960583040753,305.6118498654728L744.2580994277264,307.1680842003017L752.4201405513776,308.1866770291594L760.5821816750287,306.75156372281253L768.7442227986799,307.89171771971024L776.9062639223309,306.35095175237814L785.0683050459821,308.14220433110137L793.2303461696332,306.7576108765061L801.3923872932844,309.17612528404527L809.5544284169355,307.16628879529065L817.7164695405867,305.20996880073136L825.8785106642378,305.63031374758475L834.040551787889,304.1868701185398L842.20259291154,306.9127054588279L850.3646340351912,305.463836698443L858.5266751588423,303.64360413758754L866.6887162824935,302.22621882528557L874.8507574061446,302.89053659849L883.0127985297958,301.3999384461432L891.1748396534468,300.0501012877984L899.336880777098,300.90670091999056L907.4989219007491,303.29397531530975L915.6609630244003,305.5632375292033L923.8230041480514,308.1317147765958L931.9850452717026,308.82957703233416L940.1470863953537,309.4679062301393L948.3091275190048,307.89719040392185L956.471168642656,308.26087587778704L964.633209766307,306.14676709109L972.7952508899582,305.03143015504287L980.9572920136094,303.6338499650583L989.1193331372606,302.7382705844444L997.2813742609115,305.1643685278075L1005.4434153845627,305.7563859446256L1013.6054565082139,306.56445444658345L1021.7674976318651,308.5754033646826L1029.9295387555164,310.3724352983182L1038.0915798791673,311.28932450577037L1046.2536210028186,312.0971190404784L1054.4156621264697,312.9751944771897L1062.577703250121,311.8013546306122L1070.7397443737718,312.6902623115604L1078.9017854974231,313.96316350131684L1087.0638266210742,315.594269086631L1095.2258677447255,316.21749187105235L1103.3879088683764,317.21717695792086L1111.5499499920277,317.81675462785694L1119.7119911156788,318.71664166659656L1127.87403223933,320.4757068714817L1136.036073362981,322.2185163503367L1144.1981144866322,321.36461567600105L1152.3601556102833,322.1046112963913L1160.5221967339346,323.560176921055L1168.6842378575855,324.07525309897153L1176.8462789812368,325.4386058435739L1185.0083201048878,325.78851945342296L1193.1703612285392,327.245006733012L1201.33240235219,326.1588702905401L1209.4944434758413,324.94638815677314L1217.6564845994924,325.292987203512L1225.8185257231437,325.63076550952036L1233.9805668467945,325.3222310198385L1242.1426079704459,325.81256144026105L1250.304649094097,325.2827656547029L1258.4666902177482,326.39211941338743L1266.628731341399,327.0022742280866L1274.7907724650504,328.3753528029548L1282.9528135887015,327.442981969146L1291.1148547123528,327.8192250466342L1299.2768958360036,329.17950420899047L1307.438936959655,330.5232810871169L1315.600978083306,330.7104173195645L1323.7630192069573,330.7748867892147L1331.9250603306082,331.06619507846665L1340.0871014542595,330.0269928438555L1348.2491425779106,329.05817144503004L1356.4111837015619,330.0400569517668L1364.5732248252127,331.0581575709745L1372.735265948864,331.4816650892014L1380.897307072515,332.35826483000284L1389.0593481961664,332.7060359123661L1397.2213893198173,331.58041618638845L1405.3834304434686,332.2485977112369L1413.5454715671196,333.4462375547458L1421.707512690771,334.48096478879575L1429.8695538144218,335.3615130784639L1438.031594938073,335.6744243008026L1446.1936360617242,335.0273404049861L1454.3556771853755,336.00165181457504L1462.5177183090263,337.01735644631873L1470.6797594326777,336.2488985628702L1478.8418005563287,336.6329072178914L1487.00384167998,335.8774729522872L1495.1658828036311,334.9178073698979L1503.3279239272822,335.8561408059352L1511.4899650509333,336.59339433890693L1519.6520061745846,337.09046861072807L1527.8140472982357,336.2803702890177L1535.9760884218867,335.8730003479421L1544.1381295455378,337.1264039372412L1552.3001706691891,338.1913047746134L1560.4622117928402,337.5406316916523L1568.6242529164913,338.1660412285027L1576.7862940401424,337.1488484659088L1584.9483351637937,338.0002781593704L1593.1103762874448,338.6963952486813L1601.2724174110958,339.07988382708834L1609.434458534747,339.8622768671348L1617.5964996583982,338.8908338219305L1625.7585407820493,339.56568033466186L1633.9205819057004,340.32244347724367L1642.0826230293515,339.71969948916933L1650.2446641530028,339.4010004825895L1658.4067052766538,339.78667701952224L1666.568746400305,340.65738987656107L1674.730787523956,341.14344003494875" style="fill: none;" fill="none"></path></g></g></g></g><g opacity="0.2"><g><g><g><path stroke="rgb(255, 112, 67)" stroke-width="2px" d="M132.10501515389112,307.6515149002823L140.26705627754225,-289.49700621022225L148.4290974011934,280.4407758788258L156.59113852484452,356.08783612122465L164.75317964849566,443.7730577861206L246.37359088500702,453.96761174395755L254.53563200865815,353.5912646595987L262.6976731323093,337.7290588045097L270.85971425596045,435.00481910617094L279.0217553796116,8.338110439926425L287.1837965032627,479.65829593832416L327.99400212151846,515.7202407004156L336.1560432451696,62.755808662307004L344.31808436882073,37.484684547032714L352.48012549247187,12.611008560736423L360.642166616123,58.964648668346626L368.80420773977414,468.63615027492625L376.9662488634253,482.3493391663402L385.1282899870764,331.24383172610743L393.29033111072755,487.87694871286817L409.6144133580298,493.7494668829744L417.77645448168096,51.68452533198837L425.9384956053321,12.926623575188785L434.10053672898323,506.27787102851903L442.26257785263437,503.1632989098517L450.4246189762855,371.7568931471099L458.58666009993664,456.3352913254299L466.7487012235878,345.23521540870325L474.91074234723885,172.51140241567205L483.07278347089004,387.05741767108975L491.2348245945411,350.54832014001965L499.3968657181923,61.36748058077001L507.5589068418434,440.9727777447193L515.7209479654946,446.8184591890457L523.8829890891457,100.82540510016332L532.0450302127969,487.6851228208508L540.2070713364479,84.47976019898499L548.3691124600991,353.3820515931324L556.5311535837503,345.6460819005711L564.6931947074014,314.1981640623354L572.8552358310526,363.8665177858016L581.0172769547037,377.7235288484719L589.1793180783549,124.51694221496297L597.341359202006,500.95588371895155L605.5034003256571,453.012640086456L613.6654414493082,363.58737803948657L621.8274825729594,173.1507590587213L629.9895236966105,475.631464134171L646.3136059439128,387.6155081726932L654.475647067564,100.34328899126035L662.637688191215,164.35946347352422L670.7997293148662,183.8319649101L678.9617704385173,128.99943138429254L687.1238115621685,497.7700619832492L695.2858526858196,112.76831504524483L703.4478938094708,353.1357962854489L711.6099349331218,186.98112238663845L719.771976056773,123.73187349039111L727.9340171804241,342.4385261968077L736.0960583040753,526.6288027568161L752.4201405513776,382.69248092031665L760.5821816750287,200.45032386268832L768.7442227986799,393.39938955131544L776.9062639223309,189.37507172081075L785.0683050459821,445.78864708500333L793.2303461696332,199.08354075818576L801.3923872932844,499.4819427023565L809.5544284169355,147.16846171028286L817.7164695405867,147.67382371545986L825.8785106642378,339.8654133694014L834.040551787889,185.3008031689764L842.20259291154,533.9187536265584L850.3646340351912,183.476094806978L858.5266751588423,148.72366886832376L866.6887162824935,180.29726573926052L874.8507574061446,360.6442207819619L883.0127985297958,170.45253417169377L891.1748396534468,180.23848952998225L899.336880777098,377.7182370997266L923.8230041480514,545.4475842323196L931.9850452717026,373.94162941481585L940.1470863953537,369.60352938982254L948.3091275190048,158.50225357657408L956.471168642656,343.1806939583372L964.633209766307,101.24836701773472L972.7952508899582,195.92739061366245L980.9572920136094,165.6608556828169L989.1193331372606,213.5179194071746L997.2813742609115,549.0416265855172L1005.4434153845627,365.79932901502553L1013.6054565082139,389.24479981316836L1054.4156621264697,406.74744777930306L1062.577703250121,185.39624363741856L1070.7397443737718,409.20470910739243L1136.036073362981,523.817939217924L1144.1981144866322,221.83541448863994L1152.3601556102833,409.0102373410023L1176.8462789812368,489.1537720887005L1185.0083201048878,368.11465808212466L1193.1703612285392,504.70300880370985L1201.33240235219,192.87159470427338L1209.4944434758413,175.09188589311646L1217.6564845994924,368.4336749350561L1225.8185257231437,367.96894600060205L1233.9805668467945,286.3800078813282L1242.1426079704459,388.1284298189349L1250.304649094097,257.48932762426284L1258.4666902177482,469.31292714124595L1274.7907724650504,507.6609073613107L1282.9528135887015,204.89180197924176L1291.1148547123528,377.5991727529572L1307.438936959655,510.6437527344252L1315.600978083306,355.95610937567176L1323.7630192069573,339.5278753958613L1331.9250603306082,370.8684463309779L1340.0871014542595,187.1417647592639L1348.2491425779106,195.0153199192032L1356.4111837015619,466.7354675202274L1389.0593481961664,382.31601079529327L1397.2213893198173,170.04544750035825L1405.3834304434686,428.7093390184933L1438.031594938073,381.9153498188628L1446.1936360617242,238.85273349841918L1454.3556771853755,481.6398668524156L1462.5177183090263,489.70581487745216L1470.6797594326777,220.07628601287809L1478.8418005563287,395.0114830083684L1487.00384167998,220.39341295554334L1495.1658828036311,187.40068246573077L1503.3279239272822,480.88730458442205L1519.6520061745846,414.7585884066204L1527.8140472982357,209.01936600058244L1535.9760884218867,271.5349517314981L1544.1381295455378,536.1371302970024L1552.3001706691891,508.1670253305942L1560.4622117928402,233.13632191629958L1568.6242529164913,439.04110046165505L1576.7862940401424,172.22923881293116L1584.9483351637937,476.7569056976821L1609.434458534747,469.3284244054286L1617.5964996583982,177.33199653162154L1625.7585407820493,452.36005407154346L1633.9205819057004,467.43794716616713L1642.0826230293515,237.97430320669795L1650.2446641530028,285.3388563156887L1658.4067052766538,405.5303455678821" style="fill: none;" fill="none"></path></g></g></g></g></g></g><g transform="translate(50, 377)" clip-path="url(#clip_1)"><clipPath id="clip_1"><rect width="1872" height="22"></rect></clipPath><g><g><line x1="123.94297403023997" y1="0" x2="123.94297403023997" y2="5" style="visibility: inherit;" fill="rgb(0, 0, 0)" stroke="rgb(204, 204, 204)" stroke-width="1px"></line><line x1="287.1837965032627" y1="0" x2="287.1837965032627" y2="5" style="visibility: inherit;" fill="rgb(0, 0, 0)" stroke="rgb(204, 204, 204)" stroke-width="1px"></line><line x1="450.4246189762855" y1="0" x2="450.4246189762855" y2="5" style="visibility: inherit;" fill="rgb(0, 0, 0)" stroke="rgb(204, 204, 204)" stroke-width="1px"></line><line x1="613.6654414493082" y1="0" x2="613.6654414493082" y2="5" style="visibility: inherit;" fill="rgb(0, 0, 0)" stroke="rgb(204, 204, 204)" stroke-width="1px"></line><line x1="776.9062639223309" y1="0" x2="776.9062639223309" y2="5" style="visibility: inherit;" fill="rgb(0, 0, 0)" stroke="rgb(204, 204, 204)" stroke-width="1px"></line><line x1="940.1470863953537" y1="0" x2="940.1470863953537" y2="5" style="visibility: inherit;" fill="rgb(0, 0, 0)" stroke="rgb(204, 204, 204)" stroke-width="1px"></line><line x1="1103.3879088683764" y1="0" x2="1103.3879088683764" y2="5" style="visibility: inherit;" fill="rgb(0, 0, 0)" stroke="rgb(204, 204, 204)" stroke-width="1px"></line><line x1="1266.628731341399" y1="0" x2="1266.628731341399" y2="5" style="visibility: inherit;" fill="rgb(0, 0, 0)" stroke="rgb(204, 204, 204)" stroke-width="1px"></line><line x1="1429.8695538144218" y1="0" x2="1429.8695538144218" y2="5" style="visibility: inherit;" fill="rgb(0, 0, 0)" stroke="rgb(204, 204, 204)" stroke-width="1px"></line><line x1="1593.1103762874448" y1="0" x2="1593.1103762874448" y2="5" style="visibility: inherit;" fill="rgb(0, 0, 0)" stroke="rgb(204, 204, 204)" stroke-width="1px"></line><line x1="1756.3511987604675" y1="0" x2="1756.3511987604675" y2="5" style="visibility: inherit;" fill="rgb(0, 0, 0)" stroke="rgb(204, 204, 204)" stroke-width="1px"></line></g><g transform="translate(0, 8)"><text x="123.94297403023997" y="0" dx="0em" dy="0.95em" style="text-anchor: middle; visibility: inherit; font-family: &quot;Helvetica Neue&quot;, sans-serif; font-size: 12px; font-weight: 200;" fill="rgb(33, 33, 33)" stroke="none" stroke-width="1px">0</text><text x="287.1837965032627" y="0" dx="0em" dy="0.95em" style="text-anchor: middle; visibility: inherit; font-family: &quot;Helvetica Neue&quot;, sans-serif; font-size: 12px; font-weight: 200;" fill="rgb(33, 33, 33)" stroke="none" stroke-width="1px">20</text><text x="450.4246189762855" y="0" dx="0em" dy="0.95em" style="text-anchor: middle; visibility: inherit; font-family: &quot;Helvetica Neue&quot;, sans-serif; font-size: 12px; font-weight: 200;" fill="rgb(33, 33, 33)" stroke="none" stroke-width="1px">40</text><text x="613.6654414493082" y="0" dx="0em" dy="0.95em" style="text-anchor: middle; visibility: inherit; font-family: &quot;Helvetica Neue&quot;, sans-serif; font-size: 12px; font-weight: 200;" fill="rgb(33, 33, 33)" stroke="none" stroke-width="1px">60</text><text x="776.9062639223309" y="0" dx="0em" dy="0.95em" style="text-anchor: middle; visibility: inherit; font-family: &quot;Helvetica Neue&quot;, sans-serif; font-size: 12px; font-weight: 200;" fill="rgb(33, 33, 33)" stroke="none" stroke-width="1px">80</text><text x="940.1470863953537" y="0" dx="0em" dy="0.95em" style="text-anchor: middle; visibility: inherit; font-family: &quot;Helvetica Neue&quot;, sans-serif; font-size: 12px; font-weight: 200;" fill="rgb(33, 33, 33)" stroke="none" stroke-width="1px">100</text><text x="1103.3879088683764" y="0" dx="0em" dy="0.95em" style="text-anchor: middle; visibility: inherit; font-family: &quot;Helvetica Neue&quot;, sans-serif; font-size: 12px; font-weight: 200;" fill="rgb(33, 33, 33)" stroke="none" stroke-width="1px">120</text><text x="1266.628731341399" y="0" dx="0em" dy="0.95em" style="text-anchor: middle; visibility: inherit; font-family: &quot;Helvetica Neue&quot;, sans-serif; font-size: 12px; font-weight: 200;" fill="rgb(33, 33, 33)" stroke="none" stroke-width="1px">140</text><text x="1429.8695538144218" y="0" dx="0em" dy="0.95em" style="text-anchor: middle; visibility: inherit; font-family: &quot;Helvetica Neue&quot;, sans-serif; font-size: 12px; font-weight: 200;" fill="rgb(33, 33, 33)" stroke="none" stroke-width="1px">160</text><text x="1593.1103762874448" y="0" dx="0em" dy="0.95em" style="text-anchor: middle; visibility: inherit; font-family: &quot;Helvetica Neue&quot;, sans-serif; font-size: 12px; font-weight: 200;" fill="rgb(33, 33, 33)" stroke="none" stroke-width="1px">180</text><text x="1756.3511987604675" y="0" dx="0em" dy="0.95em" style="text-anchor: middle; visibility: inherit; font-family: &quot;Helvetica Neue&quot;, sans-serif; font-size: 12px; font-weight: 200;" fill="rgb(33, 33, 33)" stroke="none" stroke-width="1px">200</text></g><line x1="0" y1="0" x2="1872.5" y2="0" fill="rgb(0, 0, 0)" stroke="rgb(204, 204, 204)" stroke-width="1px"></line></g></g></g></g></svg>